#VRML V2.0 utf8
# 3D model generated by easyeda2kicad.py (https://github.com/uPesy/easyeda2kicad.py)

Shape{
    appearance Appearance {
        material  Material 	{
            diffuseColor 0.10980392156862745 0.10980392156862745 0.10980392156862745
            specularColor 0.0784313725490196 0.0784313725490196 0.0784313725490196
            ambientIntensity 0.1098
            transparency 0.0
            shininess 0.5
        }
    }
    geometry IndexedFaceSet {
        ccw TRUE
        solid FALSE
        coord DEF co Coordinate {
            point [
                -0.0584 -0.1149 0.1969, -0.0584 -0.099 0.1969, -0.0468 -0.1188 0.1969, -0.0717 -0.1047 0.1969, -0.086 -0.1066 0.1969, -0.0919 -0.1049 0.1969, -2.4606 -0.1188 0.1969, -2.4606 2.0669 0.1969, -0.2168 0.0 0.1969, -2.4508 2.1545 0.1969, -2.4216 2.2377 0.1969, -0.0584 -0.0191 0.1969, -0.073 -0.0133 0.1969, -0.0887 -0.0115 0.1969, -0.1184 -0.0925 0.1969, -0.1226 -0.0877 0.1969, -0.1019 -0.0146 0.1969, -0.1257 -0.0814 0.1969, -0.1283 -0.0723 0.1969, -0.1304 -0.0578 0.1969, -0.1276 -0.0435 0.1969, -0.1102 -0.0177 0.1969, -0.0584 -0.0061 0.1969, -0.0468 2.4606 0.1969, -0.0742 -0.0002 0.1969, -0.0909 0.0014 0.1969, -2.2377 2.4216 0.1969, -2.1545 2.4508 0.1969, -2.0669 2.4606 0.1969, -0.1563 0.0 0.1969, -0.1366 -0.0906 0.1969, -0.1306 -0.1006 0.1969, -0.201 -0.1181 0.1969, -0.1246 -0.1066 0.1969, -0.1167 -0.1113 0.1969, -0.1563 -0.013 0.1969, -0.1001 -0.001 0.1969, -0.1225 -0.0091 0.1969, -2.3747 2.3124 0.1969, -2.3124 2.3747 0.1969, -0.1113 -0.0975 0.1969, -0.1234 -0.0311 0.1969, -0.1195 -0.0247 0.1969, -0.1158 -0.0211 0.1969, -0.1311 -0.015 0.1969, -0.1362 -0.0207 0.1969, -0.201 -0.013 0.1969, -0.1401 -0.0283 0.1969, -0.1434 -0.0393 0.1969, -0.1462 -0.0568 0.1969, -0.1448 -0.0636 0.1969, -0.1049 -0.1155 0.1969, -0.0895 -0.1188 0.1969, -0.2168 -0.1181 0.1969, -0.0862 -0.1196 0.1969, -0.0468 -2.4606 0.1969, -0.0755 -0.1188 0.1969, -0.072 -0.1186 0.1969, -2.0669 -2.4606 0.1969, -2.1545 -2.4508 0.1969, -2.2377 -2.4216 0.1969, -2.3124 -2.3747 0.1969, -2.3747 -2.3124 0.1969, -2.4216 -2.2377 0.1969, -2.4508 -2.1545 0.1969, -2.4606 -2.0669 0.1969, 0.0281 -0.0 0.1969, -0.0353 0.0 0.1969, -0.0353 -0.1181 0.1969, 0.0252 -0.1181 0.1969, 0.0223 -0.0533 0.1969, -0.0195 -0.0533 0.1969, -0.0195 -0.013 0.1969, 0.2322 -0.0331 0.1969, 0.1834 -0.0331 0.1969, 0.2441 -0.0 0.1969, 0.1721 -0.0 0.1969, 0.0252 -0.1051 0.1969, 0.0511 -0.1181 0.1969, 0.0511 -0.0 0.1969, 0.0281 -0.013 0.1969, 2.3124 2.3747 0.1969, 2.3747 2.3124 0.1969, 2.2377 2.4216 0.1969, -0.0195 -0.1051 0.1969, -0.0195 -0.0663 0.1969, 0.0223 -0.0663 0.1969, 2.4216 2.2377 0.1969, 2.4508 2.1545 0.1969, 0.2614 -0.0 0.1969, 2.4606 2.0669 0.1969, 0.2153 -0.1181 0.1969, 2.4606 -0.1188 0.1969, 0.1548 -0.0 0.1969, 2.0669 2.4606 0.1969, 2.1545 2.4508 0.1969, 0.1179 -0.109 0.1969, 0.1275 -0.1034 0.1969, 0.1995 -0.1181 0.1969, 0.1333 -0.0976 0.1969, 0.138 -0.09 0.1969, 0.1351 -0.0269 0.1969, 0.1287 -0.0172 0.1969, 0.1224 -0.0115 0.1969, 0.1143 -0.0071 0.1969, 0.0844 -0.1181 0.1969, 0.0927 -0.1164 0.1969, 0.1421 -0.0786 0.1969, 0.1462 -0.0605 0.1969, 0.1443 -0.0535 0.1969, 0.0832 -0.0 0.1969, 0.1023 -0.0033 0.1969, 2.4606 -2.0669 0.1969, 2.0669 -2.4606 0.1969, 2.4508 -2.1545 0.1969, 2.4216 -2.2377 0.1969, 2.3747 -2.3124 0.1969, 2.3124 -2.3747 0.1969, 2.2377 -2.4216 0.1969, 2.1545 -2.4508 0.1969, 2.0669 -2.4606 3.3465, 2.1545 -2.4508 3.3465, 2.2377 -2.4216 3.3465, 2.3124 -2.3747 3.3465, 2.3747 -2.3124 3.3465, 2.4216 -2.2377 3.3465, 2.4508 -2.1545 3.3465, 2.4606 -2.0669 3.3465, 2.4606 2.0669 3.3465, 2.4508 2.1545 3.3465, 2.4216 2.2377 3.3465, 2.3747 2.3124 3.3465, 2.3124 2.3747 3.3465, 2.2377 2.4216 3.3465, 2.1545 2.4508 3.3465, 2.0669 2.4606 3.3465, -2.0669 2.4606 3.3465, -2.1545 2.4508 3.3465, -2.2377 2.4216 3.3465, -2.3124 2.3747 3.3465, -2.3747 2.3124 3.3465, -2.4216 2.2377 3.3465, -2.4508 2.1545 3.3465, -2.4606 2.0669 3.3465, -2.4606 -2.0669 3.3465, -2.4508 -2.1545 3.3465, -2.4216 -2.2377 3.3465, -2.3747 -2.3124 3.3465, -2.3124 -2.3747 3.3465, -2.2377 -2.4216 3.3465, -2.1545 -2.4508 3.3465, -2.0669 -2.4606 3.3465, 1.0543 1.8913 3.3465, 1.2856 1.7424 3.3465, 1.3159 1.8384 3.3465, -1.5314 2.0405 3.3465, -1.4429 1.9925 3.3465, 1.8913 -1.0543 3.3465, 1.7424 -1.2856 3.3465, 1.8384 -1.3159 3.3465, -1.6292 2.0645 3.3465, -1.7299 2.0628 3.3465, 0.806 2.0097 3.3465, 1.3694 1.9237 3.3465, 0.5447 2.0957 3.3465, 1.4429 1.9925 3.3465, 0.2746 2.1479 3.3465, -2.0645 1.6292 3.3465, -2.0405 1.5314 3.3465, -1.9925 1.4429 3.3465, 2.0628 1.7299 3.3465, 2.0645 1.6292 3.3465, 2.0097 -0.806 3.3465, 1.9237 -1.3694 3.3465, 2.0957 -0.5447 3.3465, 1.9925 -1.4429 3.3465, 2.1479 -0.2746 3.3465, -2.0628 1.7299 3.3465, -2.0357 1.8268 3.3465, -1.9849 1.9137 3.3465, -1.8268 2.0357 3.3465, -1.9137 1.9849 3.3465, -1.6292 -2.0645 3.3465, -1.7299 -2.0628 3.3465, -1.8268 -2.0357 3.3465, -1.9137 -1.9849 3.3465, -2.0628 -1.7299 3.3465, -2.0357 -1.8268 3.3465, -1.9849 -1.9137 3.3465, -2.1479 -0.2746 3.3465, -2.1654 0.0 3.3465, -2.1479 0.2746 3.3465, -2.0957 0.5447 3.3465, -1.9237 1.3694 3.3465, -2.0097 0.806 3.3465, -1.8384 1.3159 3.3465, -1.8913 1.0543 3.3465, -1.7424 1.2856 3.3465, 1.8268 2.0357 3.3465, 1.9137 1.9849 3.3465, 2.0405 1.5314 3.3465, 1.9925 1.4429 3.3465, 2.0357 -1.8268 3.3465, 1.9849 -1.9137 3.3465, 1.7299 -2.0628 3.3465, 1.8268 -2.0357 3.3465, 1.9137 -1.9849 3.3465, -1.5314 -2.0405 3.3465, -1.4429 -1.9925 3.3465, -1.7424 -1.2856 3.3465, -1.8913 -1.0543 3.3465, -1.8384 -1.3159 3.3465, -2.0097 -0.806 3.3465, -1.9237 -1.3694 3.3465, -2.0957 -0.5447 3.3465, -1.9925 -1.4429 3.3465, -2.0405 -1.5314 3.3465, -2.0645 -1.6292 3.3465, -1.2856 1.7424 3.3465, -1.0543 1.8913 3.3465, -1.3159 1.8384 3.3465, -0.806 2.0097 3.3465, -1.3694 1.9237 3.3465, -0.5447 2.0957 3.3465, -0.2746 2.1479 3.3465, 0.0 2.1654 3.3465, 2.0357 1.8268 3.3465, 1.9849 1.9137 3.3465, 2.0405 -1.5314 3.3465, 2.0645 -1.6292 3.3465, 2.0628 -1.7299 3.3465, 1.5314 2.0405 3.3465, 1.6292 2.0645 3.3465, 1.7299 2.0628 3.3465, 1.7424 1.2856 3.3465, 1.8913 1.0543 3.3465, 1.8384 1.3159 3.3465, 2.0097 0.806 3.3465, 1.9237 1.3694 3.3465, 2.0957 0.5447 3.3465, 2.1479 0.2746 3.3465, 2.1654 -0.0 3.3465, 1.2856 -1.7424 3.3465, 1.0543 -1.8913 3.3465, 1.3159 -1.8384 3.3465, 0.806 -2.0097 3.3465, 1.3694 -1.9237 3.3465, 0.5447 -2.0957 3.3465, 1.4429 -1.9925 3.3465, 0.2746 -2.1479 3.3465, 1.5314 -2.0405 3.3465, 1.6292 -2.0645 3.3465, 0.0 -2.1654 3.3465, -0.2746 -2.1479 3.3465, -0.5447 -2.0957 3.3465, -1.3694 -1.9237 3.3465, -0.806 -2.0097 3.3465, -1.3159 -1.8384 3.3465, -1.0543 -1.8913 3.3465, -1.2856 -1.7424 3.3465
            ]
        }
        coordIndex [
            0,1,2,-1,3,4,5,-1,6,7,8,-1,8,7,9,-1,8,9,10,-1,1,3,11,-1,11,3,5,-1,11,5,12,-1,12,5,13,-1,14,15,16,-1,16,15,17,-1,16,17,18,-1,18,19,16,-1,16,19,20,-1,16,20,21,-1,1,11,2,-1,2,11,22,-1,2,22,23,-1,23,22,24,-1,23,24,25,-1,26,27,8,-1,8,27,28,-1,8,28,29,-1,30,31,32,-1,32,31,33,-1,32,33,34,-1,28,23,29,-1,29,23,25,-1,29,25,35,-1,35,25,36,-1,35,36,37,-1,10,38,8,-1,8,38,39,-1,8,39,26,-1,13,5,16,-1,16,5,40,-1,16,40,14,-1,41,42,20,-1,20,42,43,-1,20,43,21,-1,37,44,35,-1,35,44,45,-1,35,45,46,-1,46,45,47,-1,47,48,46,-1,46,48,49,-1,46,49,32,-1,32,49,50,-1,32,50,30,-1,34,51,32,-1,32,51,52,-1,32,52,53,-1,52,54,55,-1,55,54,56,-1,55,56,2,-1,2,56,57,-1,2,57,0,-1,8,53,6,-1,6,53,52,-1,6,52,58,-1,58,52,55,-1,58,59,60,-1,60,61,58,-1,58,61,62,-1,58,62,63,-1,63,64,58,-1,58,64,65,-1,58,65,6,-1,66,67,23,-1,23,67,2,-1,2,67,68,-1,2,68,69,-1,70,71,72,-1,73,74,75,-1,75,74,76,-1,69,77,78,-1,79,78,80,-1,81,82,75,-1,81,75,83,-1,84,85,77,-1,77,85,86,-1,77,86,78,-1,78,86,70,-1,78,70,80,-1,80,70,72,-1,82,87,75,-1,75,87,88,-1,75,88,89,-1,89,88,90,-1,89,90,91,-1,91,90,92,-1,93,23,76,-1,76,23,94,-1,76,94,75,-1,75,94,95,-1,75,95,83,-1,96,97,98,-1,98,97,99,-1,98,99,100,-1,101,102,93,-1,93,102,103,-1,93,103,104,-1,69,78,2,-1,2,78,105,-1,2,105,98,-1,98,105,106,-1,98,106,96,-1,100,107,98,-1,98,107,108,-1,98,108,93,-1,93,108,109,-1,93,109,101,-1,80,66,79,-1,79,66,23,-1,79,23,110,-1,110,23,93,-1,110,93,111,-1,111,93,104,-1,98,91,2,-1,2,91,92,-1,2,92,55,-1,55,92,112,-1,55,112,113,-1,114,115,112,-1,112,115,116,-1,112,116,117,-1,117,118,112,-1,112,118,119,-1,112,119,113,-1,120,113,119,-1,120,119,121,-1,121,119,118,-1,121,118,122,-1,122,118,117,-1,122,117,123,-1,123,117,116,-1,123,116,124,-1,124,116,115,-1,124,115,125,-1,125,115,114,-1,125,114,126,-1,126,114,112,-1,126,112,127,-1,90,128,92,-1,92,128,127,-1,92,127,112,-1,128,90,88,-1,128,88,129,-1,129,88,87,-1,129,87,130,-1,130,87,82,-1,130,82,131,-1,131,82,81,-1,131,81,132,-1,132,81,83,-1,132,83,133,-1,133,83,95,-1,133,95,134,-1,134,95,94,-1,134,94,135,-1,135,94,136,-1,136,94,23,-1,136,23,28,-1,136,28,27,-1,136,27,137,-1,137,27,26,-1,137,26,138,-1,138,26,39,-1,138,39,139,-1,139,39,38,-1,139,38,140,-1,140,38,10,-1,140,10,141,-1,141,10,9,-1,141,9,142,-1,142,9,7,-1,142,7,143,-1,143,7,144,-1,144,7,6,-1,144,6,65,-1,144,65,64,-1,144,64,145,-1,145,64,63,-1,145,63,146,-1,146,63,62,-1,146,62,147,-1,147,62,61,-1,147,61,148,-1,148,61,60,-1,148,60,149,-1,149,60,59,-1,149,59,150,-1,150,59,58,-1,150,58,151,-1,113,120,55,-1,55,120,151,-1,55,151,58,-1,152,153,154,-1,155,156,135,-1,157,158,159,-1,155,135,160,-1,160,135,136,-1,160,136,161,-1,152,154,162,-1,162,154,163,-1,162,163,164,-1,164,163,165,-1,164,165,166,-1,167,143,168,-1,168,143,144,-1,168,144,169,-1,128,170,171,-1,157,159,172,-1,172,159,173,-1,172,173,174,-1,174,173,175,-1,174,175,176,-1,167,177,143,-1,143,177,178,-1,143,178,142,-1,142,178,179,-1,142,179,141,-1,141,179,140,-1,161,136,180,-1,180,136,137,-1,180,137,181,-1,181,137,138,-1,181,138,179,-1,179,138,139,-1,179,139,140,-1,182,183,151,-1,151,183,184,-1,151,184,150,-1,150,184,185,-1,150,185,149,-1,149,185,148,-1,186,144,187,-1,187,144,145,-1,187,145,188,-1,188,145,146,-1,188,146,185,-1,185,146,147,-1,185,147,148,-1,189,190,144,-1,144,190,191,-1,144,191,169,-1,169,191,192,-1,169,192,193,-1,193,192,194,-1,193,194,195,-1,195,194,196,-1,195,196,197,-1,135,198,134,-1,134,198,199,-1,134,199,133,-1,133,199,132,-1,128,171,127,-1,127,171,200,-1,127,200,201,-1,127,202,126,-1,126,202,203,-1,126,203,125,-1,125,203,124,-1,204,120,205,-1,205,120,121,-1,205,121,206,-1,206,121,122,-1,206,122,203,-1,203,122,123,-1,203,123,124,-1,182,151,207,-1,207,151,120,-1,207,120,208,-1,209,210,211,-1,211,210,212,-1,211,212,213,-1,213,212,214,-1,213,214,215,-1,215,214,189,-1,215,189,216,-1,216,189,144,-1,216,144,217,-1,217,144,186,-1,218,219,220,-1,220,219,221,-1,220,221,222,-1,222,221,223,-1,222,223,156,-1,156,223,224,-1,156,224,135,-1,135,224,225,-1,135,225,166,-1,170,128,226,-1,226,128,129,-1,226,129,227,-1,227,129,130,-1,227,130,199,-1,199,130,131,-1,199,131,132,-1,175,228,176,-1,176,228,229,-1,176,229,127,-1,127,229,230,-1,127,230,202,-1,165,231,166,-1,166,231,232,-1,166,232,135,-1,135,232,233,-1,135,233,198,-1,234,235,236,-1,236,235,237,-1,236,237,238,-1,238,237,239,-1,238,239,201,-1,201,239,240,-1,201,240,127,-1,127,240,241,-1,127,241,176,-1,242,243,244,-1,244,243,245,-1,244,245,246,-1,246,245,247,-1,246,247,248,-1,248,247,249,-1,248,249,250,-1,250,249,120,-1,250,120,251,-1,251,120,204,-1,249,252,120,-1,120,252,253,-1,120,253,208,-1,208,253,254,-1,208,254,255,-1,255,254,256,-1,255,256,257,-1,257,256,258,-1,257,258,259,-1,
        ]
    }
}
Shape{
    appearance Appearance {
        material  Material 	{
            diffuseColor 0.4392156862745098 0.4392156862745098 0.4392156862745098
            specularColor 0.38823529411764707 0.38823529411764707 0.38823529411764707
            ambientIntensity 0.4392
            transparency 0.0
            shininess 0.5
        }
    }
    geometry IndexedFaceSet {
        ccw TRUE
        solid FALSE
        coord DEF co Coordinate {
            point [
                1.2856 -1.7424 3.2677, 1.2856 -1.7424 3.3465, 1.3159 -1.8384 3.2677, 1.3159 -1.8384 3.3465, 1.3694 -1.9237 3.2677, 1.3694 -1.9237 3.3465, 1.4429 -1.9925 3.2677, 1.4429 -1.9925 3.3465, 1.5314 -2.0405 3.2677, 1.5314 -2.0405 3.3465, 1.6292 -2.0645 3.2677, 1.6292 -2.0645 3.3465, 1.7299 -2.0628 3.2677, 1.7299 -2.0628 3.3465, 1.8268 -2.0357 3.2677, 1.8268 -2.0357 3.3465, 1.9137 -1.9849 3.2677, 1.9137 -1.9849 3.3465, 1.9849 -1.9137 3.2677, 1.9849 -1.9137 3.3465, 2.0357 -1.8268 3.2677, 2.0357 -1.8268 3.3465, 2.0628 -1.7299 3.2677, 2.0628 -1.7299 3.3465, 2.0645 -1.6292 3.2677, 2.0645 -1.6292 3.3465, 2.0405 -1.5314 3.2677, 2.0405 -1.5314 3.3465, 1.9925 -1.4429 3.2677, 1.9925 -1.4429 3.3465, 1.9237 -1.3694 3.2677, 1.9237 -1.3694 3.3465, 1.8384 -1.3159 3.2677, 1.8384 -1.3159 3.3465, 1.7424 -1.2856 3.2677, 1.7424 -1.2856 3.3465, -1.2856 -1.7424 3.2677, -1.2856 -1.7424 3.3465, -1.0543 -1.8913 3.2677, -1.0543 -1.8913 3.3465, -0.806 -2.0097 3.2677, -0.806 -2.0097 3.3465, -0.5447 -2.0957 3.2677, -0.5447 -2.0957 3.3465, -0.2746 -2.1479 3.2677, -0.2746 -2.1479 3.3465, 0.0 -2.1654 3.2677, 0.0 -2.1654 3.3465, 0.2746 -2.1479 3.2677, 0.2746 -2.1479 3.3465, 0.5447 -2.0957 3.2677, 0.5447 -2.0957 3.3465, 0.806 -2.0097 3.2677, 0.806 -2.0097 3.3465, 1.0543 -1.8913 3.2677, 1.0543 -1.8913 3.3465, -1.7424 -1.2856 3.2677, -1.7424 -1.2856 3.3465, -1.8384 -1.3159 3.2677, -1.8384 -1.3159 3.3465, -1.9237 -1.3694 3.2677, -1.9237 -1.3694 3.3465, -1.9925 -1.4429 3.2677, -1.9925 -1.4429 3.3465, -2.0405 -1.5314 3.2677, -2.0405 -1.5314 3.3465, -2.0645 -1.6292 3.2677, -2.0645 -1.6292 3.3465, -2.0628 -1.7299 3.2677, -2.0628 -1.7299 3.3465, -2.0357 -1.8268 3.2677, -2.0357 -1.8268 3.3465, -1.9849 -1.9137 3.2677, -1.9849 -1.9137 3.3465, -1.9137 -1.9849 3.2677, -1.9137 -1.9849 3.3465, -1.8268 -2.0357 3.2677, -1.8268 -2.0357 3.3465, -1.7299 -2.0628 3.2677, -1.7299 -2.0628 3.3465, -1.6292 -2.0645 3.2677, -1.6292 -2.0645 3.3465, -1.5314 -2.0405 3.2677, -1.5314 -2.0405 3.3465, -1.4429 -1.9925 3.2677, -1.4429 -1.9925 3.3465, -1.3694 -1.9237 3.2677, -1.3694 -1.9237 3.3465, -1.3159 -1.8384 3.2677, -1.3159 -1.8384 3.3465, -1.7424 1.2856 3.2677, -1.7424 1.2856 3.3465, -1.8913 1.0543 3.2677, -1.8913 1.0543 3.3465, -2.0097 0.806 3.2677, -2.0097 0.806 3.3465, -2.0957 0.5447 3.2677, -2.0957 0.5447 3.3465, -2.1479 0.2746 3.2677, -2.1479 0.2746 3.3465, -2.1654 0.0 3.2677, -2.1654 0.0 3.3465, -2.1479 -0.2746 3.2677, -2.1479 -0.2746 3.3465, -2.0957 -0.5447 3.2677, -2.0957 -0.5447 3.3465, -2.0097 -0.806 3.2677, -2.0097 -0.806 3.3465, -1.8913 -1.0543 3.2677, -1.8913 -1.0543 3.3465, -1.2856 1.7424 3.2677, -1.2856 1.7424 3.3465, -1.3159 1.8384 3.2677, -1.3159 1.8384 3.3465, -1.3694 1.9237 3.2677, -1.3694 1.9237 3.3465, -1.4429 1.9925 3.2677, -1.4429 1.9925 3.3465, -1.5314 2.0405 3.2677, -1.5314 2.0405 3.3465, -1.6292 2.0645 3.2677, -1.6292 2.0645 3.3465, -1.7299 2.0628 3.2677, -1.7299 2.0628 3.3465, -1.8268 2.0357 3.2677, -1.8268 2.0357 3.3465, -1.9137 1.9849 3.2677, -1.9137 1.9849 3.3465, -1.9849 1.9137 3.2677, -1.9849 1.9137 3.3465, -2.0357 1.8268 3.2677, -2.0357 1.8268 3.3465, -2.0628 1.7299 3.2677, -2.0628 1.7299 3.3465, -2.0645 1.6292 3.2677, -2.0645 1.6292 3.3465, -2.0405 1.5314 3.2677, -2.0405 1.5314 3.3465, -1.9925 1.4429 3.2677, -1.9925 1.4429 3.3465, -1.9237 1.3694 3.2677, -1.9237 1.3694 3.3465, -1.8384 1.3159 3.2677, -1.8384 1.3159 3.3465, 1.2856 1.7424 3.2677, 1.2856 1.7424 3.3465, 1.0543 1.8913 3.2677, 1.0543 1.8913 3.3465, 0.806 2.0097 3.2677, 0.806 2.0097 3.3465, 0.5447 2.0957 3.2677, 0.5447 2.0957 3.3465, 0.2746 2.1479 3.2677, 0.2746 2.1479 3.3465, 0.0 2.1654 3.2677, 0.0 2.1654 3.3465, -0.2746 2.1479 3.2677, -0.2746 2.1479 3.3465, -0.5447 2.0957 3.2677, -0.5447 2.0957 3.3465, -0.806 2.0097 3.2677, -0.806 2.0097 3.3465, -1.0543 1.8913 3.2677, -1.0543 1.8913 3.3465, 1.7424 1.2856 3.2677, 1.7424 1.2856 3.3465, 1.8384 1.3159 3.2677, 1.8384 1.3159 3.3465, 1.9237 1.3694 3.2677, 1.9237 1.3694 3.3465, 1.9925 1.4429 3.2677, 1.9925 1.4429 3.3465, 2.0405 1.5314 3.2677, 2.0405 1.5314 3.3465, 2.0645 1.6292 3.2677, 2.0645 1.6292 3.3465, 2.0628 1.7299 3.2677, 2.0628 1.7299 3.3465, 2.0357 1.8268 3.2677, 2.0357 1.8268 3.3465, 1.9849 1.9137 3.2677, 1.9849 1.9137 3.3465, 1.9137 1.9849 3.2677, 1.9137 1.9849 3.3465, 1.8268 2.0357 3.2677, 1.8268 2.0357 3.3465, 1.7299 2.0628 3.2677, 1.7299 2.0628 3.3465, 1.6292 2.0645 3.2677, 1.6292 2.0645 3.3465, 1.5314 2.0405 3.2677, 1.5314 2.0405 3.3465, 1.4429 1.9925 3.2677, 1.4429 1.9925 3.3465, 1.3694 1.9237 3.2677, 1.3694 1.9237 3.3465, 1.3159 1.8384 3.2677, 1.3159 1.8384 3.3465, 1.8913 -1.0543 3.2677, 1.8913 -1.0543 3.3465, 2.0097 -0.806 3.2677, 2.0097 -0.806 3.3465, 2.0957 -0.5447 3.2677, 2.0957 -0.5447 3.3465, 2.1479 -0.2746 3.2677, 2.1479 -0.2746 3.3465, 2.1654 -0.0 3.2677, 2.1654 -0.0 3.3465, 2.1479 0.2746 3.2677, 2.1479 0.2746 3.3465, 2.0957 0.5447 3.2677, 2.0957 0.5447 3.3465, 2.0097 0.806 3.2677, 2.0097 0.806 3.3465, 1.8913 1.0543 3.2677, 1.8913 1.0543 3.3465, 1.9685 0.0 3.3465, 1.9502 0.268 3.2677, 1.9502 0.268 3.3465, 1.8955 0.5311 3.2677, 1.8955 0.5311 3.3465, 1.8055 0.7843 3.2677, 1.8055 0.7843 3.3465, 1.6819 1.0228 3.2677, 1.6819 1.0228 3.3465, 1.527 1.2423 3.2677, 1.527 1.2423 3.3465, 1.3436 1.4387 3.2677, 1.3436 1.4387 3.3465, 1.1352 1.6082 3.2677, 1.1352 1.6082 3.3465, 0.9056 1.7478 3.2677, 0.9056 1.7478 3.3465, 0.6592 1.8548 3.2677, 0.6592 1.8548 3.3465, 0.4005 1.9273 3.2677, 0.4005 1.9273 3.3465, 0.1343 1.9639 3.2677, 0.1343 1.9639 3.3465, -0.1343 1.9639 3.2677, -0.1343 1.9639 3.3465, -0.4005 1.9273 3.2677, -0.4005 1.9273 3.3465, -0.6592 1.8548 3.2677, -0.6592 1.8548 3.3465, -0.9056 1.7478 3.2677, -0.9056 1.7478 3.3465, -1.1352 1.6082 3.2677, -1.1352 1.6082 3.3465, -1.3436 1.4387 3.2677, -1.3436 1.4387 3.3465, -1.527 1.2423 3.2677, -1.527 1.2423 3.3465, -1.6819 1.0228 3.2677, -1.6819 1.0228 3.3465, -1.8055 0.7843 3.2677, -1.8055 0.7843 3.3465, -1.8955 0.5311 3.2677, -1.8955 0.5311 3.3465, -1.9502 0.268 3.2677, -1.9502 0.268 3.3465, -1.9685 0.0 3.2677, -1.9685 0.0 3.3465, -1.9502 -0.268 3.2677, -1.9502 -0.268 3.3465, -1.8955 -0.5311 3.2677, -1.8955 -0.5311 3.3465, -1.8055 -0.7843 3.2677, -1.8055 -0.7843 3.3465, -1.6819 -1.0228 3.2677, -1.6819 -1.0228 3.3465, -1.527 -1.2423 3.2677, -1.527 -1.2423 3.3465, -1.3436 -1.4387 3.2677, -1.3436 -1.4387 3.3465, -1.1352 -1.6082 3.2677, -1.1352 -1.6082 3.3465, -0.9056 -1.7478 3.2677, -0.9056 -1.7478 3.3465, -0.6592 -1.8548 3.2677, -0.6592 -1.8548 3.3465, -0.4005 -1.9273 3.2677, -0.4005 -1.9273 3.3465, -0.1343 -1.9639 3.2677, -0.1343 -1.9639 3.3465, 0.1343 -1.9639 3.2677, 0.1343 -1.9639 3.3465, 0.4005 -1.9273 3.2677, 0.4005 -1.9273 3.3465, 0.6592 -1.8548 3.2677, 0.6592 -1.8548 3.3465, 0.9056 -1.7478 3.2677, 0.9056 -1.7478 3.3465, 1.1352 -1.6082 3.2677, 1.1352 -1.6082 3.3465, 1.3436 -1.4387 3.2677, 1.3436 -1.4387 3.3465, 1.527 -1.2423 3.2677, 1.527 -1.2423 3.3465, 1.6819 -1.0228 3.2677, 1.6819 -1.0228 3.3465, 1.8055 -0.7843 3.2677, 1.8055 -0.7843 3.3465, 1.8955 -0.5311 3.2677, 1.8955 -0.5311 3.3465, 1.9502 -0.268 3.2677, 1.9502 -0.268 3.3465, 1.9685 -0.0 3.2677
            ]
        }
        coordIndex [
            0,1,2,-1,2,1,3,-1,2,3,4,-1,4,3,5,-1,4,5,6,-1,6,5,7,-1,6,7,8,-1,8,7,9,-1,8,9,10,-1,10,9,11,-1,10,11,12,-1,12,11,13,-1,12,13,14,-1,14,13,15,-1,14,15,16,-1,16,15,17,-1,16,17,18,-1,18,17,19,-1,18,19,20,-1,20,19,21,-1,20,21,22,-1,22,21,23,-1,22,23,24,-1,24,23,25,-1,24,25,26,-1,26,25,27,-1,26,27,28,-1,28,27,29,-1,28,29,30,-1,30,29,31,-1,30,31,32,-1,32,31,33,-1,32,33,34,-1,34,33,35,-1,36,37,38,-1,38,37,39,-1,38,39,40,-1,40,39,41,-1,40,41,42,-1,42,41,43,-1,42,43,44,-1,44,43,45,-1,44,45,46,-1,46,45,47,-1,46,47,48,-1,48,47,49,-1,48,49,50,-1,50,49,51,-1,50,51,52,-1,52,51,53,-1,52,53,54,-1,54,53,55,-1,54,55,0,-1,0,55,1,-1,56,57,58,-1,58,57,59,-1,58,59,60,-1,60,59,61,-1,60,61,62,-1,62,61,63,-1,62,63,64,-1,64,63,65,-1,64,65,66,-1,66,65,67,-1,66,67,68,-1,68,67,69,-1,68,69,70,-1,70,69,71,-1,70,71,72,-1,72,71,73,-1,72,73,74,-1,74,73,75,-1,74,75,76,-1,76,75,77,-1,76,77,78,-1,78,77,79,-1,78,79,80,-1,80,79,81,-1,80,81,82,-1,82,81,83,-1,82,83,84,-1,84,83,85,-1,84,85,86,-1,86,85,87,-1,86,87,88,-1,88,87,89,-1,88,89,36,-1,36,89,37,-1,90,91,92,-1,92,91,93,-1,92,93,94,-1,94,93,95,-1,94,95,96,-1,96,95,97,-1,96,97,98,-1,98,97,99,-1,98,99,100,-1,100,99,101,-1,100,101,102,-1,102,101,103,-1,102,103,104,-1,104,103,105,-1,104,105,106,-1,106,105,107,-1,106,107,108,-1,108,107,109,-1,108,109,56,-1,56,109,57,-1,110,111,112,-1,112,111,113,-1,112,113,114,-1,114,113,115,-1,114,115,116,-1,116,115,117,-1,116,117,118,-1,118,117,119,-1,118,119,120,-1,120,119,121,-1,120,121,122,-1,122,121,123,-1,122,123,124,-1,124,123,125,-1,124,125,126,-1,126,125,127,-1,126,127,128,-1,128,127,129,-1,128,129,130,-1,130,129,131,-1,130,131,132,-1,132,131,133,-1,132,133,134,-1,134,133,135,-1,134,135,136,-1,136,135,137,-1,136,137,138,-1,138,137,139,-1,138,139,140,-1,140,139,141,-1,140,141,142,-1,142,141,143,-1,142,143,90,-1,90,143,91,-1,144,145,146,-1,146,145,147,-1,146,147,148,-1,148,147,149,-1,148,149,150,-1,150,149,151,-1,150,151,152,-1,152,151,153,-1,152,153,154,-1,154,153,155,-1,154,155,156,-1,156,155,157,-1,156,157,158,-1,158,157,159,-1,158,159,160,-1,160,159,161,-1,160,161,162,-1,162,161,163,-1,162,163,110,-1,110,163,111,-1,164,165,166,-1,166,165,167,-1,166,167,168,-1,168,167,169,-1,168,169,170,-1,170,169,171,-1,170,171,172,-1,172,171,173,-1,172,173,174,-1,174,173,175,-1,174,175,176,-1,176,175,177,-1,176,177,178,-1,178,177,179,-1,178,179,180,-1,180,179,181,-1,180,181,182,-1,182,181,183,-1,182,183,184,-1,184,183,185,-1,184,185,186,-1,186,185,187,-1,186,187,188,-1,188,187,189,-1,188,189,190,-1,190,189,191,-1,190,191,192,-1,192,191,193,-1,192,193,194,-1,194,193,195,-1,194,195,196,-1,196,195,197,-1,196,197,144,-1,144,197,145,-1,34,35,198,-1,198,35,199,-1,198,199,200,-1,200,199,201,-1,200,201,202,-1,202,201,203,-1,202,203,204,-1,204,203,205,-1,204,205,206,-1,206,205,207,-1,206,207,208,-1,208,207,209,-1,208,209,210,-1,210,209,211,-1,210,211,212,-1,212,211,213,-1,212,213,214,-1,214,213,215,-1,214,215,164,-1,164,215,165,-1,216,217,218,-1,218,217,219,-1,218,219,220,-1,220,219,221,-1,220,221,222,-1,222,221,223,-1,222,223,224,-1,224,223,225,-1,224,225,226,-1,226,225,227,-1,226,227,228,-1,228,227,229,-1,228,229,230,-1,230,229,231,-1,230,231,232,-1,232,231,233,-1,232,233,234,-1,234,233,235,-1,234,235,236,-1,236,235,237,-1,236,237,238,-1,238,237,239,-1,238,239,240,-1,240,239,241,-1,240,241,242,-1,242,241,243,-1,242,243,244,-1,244,243,245,-1,244,245,246,-1,246,245,247,-1,246,247,248,-1,248,247,249,-1,248,249,250,-1,250,249,251,-1,250,251,252,-1,252,251,253,-1,252,253,254,-1,254,253,255,-1,254,255,256,-1,256,255,257,-1,256,257,258,-1,258,257,259,-1,258,259,260,-1,260,259,261,-1,260,261,262,-1,262,261,263,-1,262,263,264,-1,264,263,265,-1,264,265,266,-1,266,265,267,-1,266,267,268,-1,268,267,269,-1,268,269,270,-1,270,269,271,-1,270,271,272,-1,272,271,273,-1,272,273,274,-1,274,273,275,-1,274,275,276,-1,276,275,277,-1,276,277,278,-1,278,277,279,-1,278,279,280,-1,280,279,281,-1,280,281,282,-1,282,281,283,-1,282,283,284,-1,284,283,285,-1,284,285,286,-1,286,285,287,-1,286,287,288,-1,288,287,289,-1,288,289,290,-1,290,289,291,-1,290,291,292,-1,292,291,293,-1,292,293,294,-1,294,293,295,-1,294,295,296,-1,296,295,297,-1,296,297,298,-1,298,297,299,-1,298,299,300,-1,300,299,301,-1,300,301,302,-1,302,301,303,-1,302,303,304,-1,304,303,305,-1,304,305,306,-1,306,305,307,-1,306,307,216,-1,216,307,217,-1,164,231,229,-1,192,194,182,-1,110,253,251,-1,136,138,118,-1,2,4,34,-1,182,194,180,-1,24,14,16,-1,16,18,24,-1,24,18,20,-1,24,20,22,-1,229,227,164,-1,164,227,225,-1,164,225,214,-1,214,225,223,-1,214,223,212,-1,212,223,221,-1,212,221,210,-1,210,221,219,-1,210,219,208,-1,208,219,217,-1,208,217,206,-1,206,217,307,-1,206,307,204,-1,204,307,305,-1,204,305,202,-1,202,305,303,-1,202,303,200,-1,200,303,301,-1,200,301,198,-1,198,301,299,-1,198,299,34,-1,170,172,194,-1,194,172,174,-1,128,130,118,-1,78,80,56,-1,2,34,0,-1,0,34,299,-1,0,299,297,-1,4,6,34,-1,34,6,8,-1,34,8,10,-1,24,26,14,-1,14,26,28,-1,14,28,30,-1,174,176,194,-1,194,176,178,-1,194,178,180,-1,182,184,186,-1,120,122,124,-1,130,132,118,-1,118,132,134,-1,118,134,136,-1,56,277,275,-1,10,12,34,-1,34,12,14,-1,34,14,32,-1,32,14,30,-1,186,188,182,-1,182,188,190,-1,182,190,192,-1,58,60,74,-1,74,60,62,-1,74,62,64,-1,64,66,74,-1,74,66,68,-1,74,68,72,-1,72,68,70,-1,58,74,56,-1,56,74,76,-1,56,76,78,-1,80,82,56,-1,56,82,84,-1,56,84,86,-1,120,124,118,-1,118,124,126,-1,118,126,128,-1,275,273,56,-1,56,273,271,-1,56,271,108,-1,108,271,269,-1,108,269,106,-1,106,269,267,-1,106,267,104,-1,104,267,265,-1,104,265,102,-1,102,265,263,-1,102,263,100,-1,100,263,261,-1,100,261,98,-1,98,261,259,-1,98,259,96,-1,96,259,257,-1,96,257,94,-1,94,257,255,-1,94,255,92,-1,92,255,253,-1,92,253,90,-1,90,253,110,-1,90,110,142,-1,142,110,112,-1,142,112,140,-1,140,112,114,-1,140,114,138,-1,138,114,116,-1,138,116,118,-1,285,48,287,-1,287,48,50,-1,287,50,289,-1,289,50,52,-1,289,52,291,-1,291,52,54,-1,291,54,293,-1,293,54,0,-1,293,0,295,-1,295,0,297,-1,86,88,56,-1,56,88,36,-1,56,36,277,-1,277,36,38,-1,277,38,279,-1,279,38,40,-1,279,40,281,-1,281,40,42,-1,281,42,283,-1,283,42,44,-1,283,44,285,-1,285,44,46,-1,285,46,48,-1,251,249,110,-1,110,249,247,-1,110,247,162,-1,162,247,245,-1,162,245,160,-1,160,245,243,-1,160,243,158,-1,158,243,241,-1,158,241,156,-1,156,241,239,-1,156,239,154,-1,154,239,237,-1,154,237,152,-1,152,237,150,-1,150,237,235,-1,150,235,148,-1,148,235,233,-1,148,233,146,-1,146,233,231,-1,146,231,144,-1,144,231,164,-1,144,164,196,-1,196,164,166,-1,196,166,194,-1,194,166,168,-1,194,168,170,-1,
        ]
    }
}
Shape{
    appearance Appearance {
        material  Material 	{
            diffuseColor 0.10980392156862745 0.10980392156862745 0.10980392156862745
            specularColor 0.0784313725490196 0.0784313725490196 0.0784313725490196
            ambientIntensity 0.1098
            transparency 0.0
            shininess 0.5
        }
    }
    geometry IndexedFaceSet {
        ccw TRUE
        solid FALSE
        coord DEF co Coordinate {
            point [
                1.9685 0.0 3.3465, 1.9502 0.268 3.3465, 0.0 0.0 3.3465, 1.8055 -0.7843 3.3465, 1.8955 -0.5311 3.3465, 1.9502 -0.268 3.3465, 1.3436 -1.4387 3.3465, 1.527 -1.2423 3.3465, 1.6819 -1.0228 3.3465, 0.6592 -1.8548 3.3465, 0.9056 -1.7478 3.3465, 1.1352 -1.6082 3.3465, -0.1343 -1.9639 3.3465, 0.1343 -1.9639 3.3465, 0.4005 -1.9273 3.3465, -0.9056 -1.7478 3.3465, -0.6592 -1.8548 3.3465, -0.4005 -1.9273 3.3465, -1.527 -1.2423 3.3465, -1.3436 -1.4387 3.3465, -1.1352 -1.6082 3.3465, -1.8955 -0.5311 3.3465, -1.8055 -0.7843 3.3465, -1.6819 -1.0228 3.3465, -1.9502 0.268 3.3465, -1.9685 0.0 3.3465, -1.9502 -0.268 3.3465, -1.6819 1.0228 3.3465, -1.8055 0.7843 3.3465, -1.8955 0.5311 3.3465, -1.1352 1.6082 3.3465, -1.3436 1.4387 3.3465, -1.527 1.2423 3.3465, -0.4005 1.9273 3.3465, -0.6592 1.8548 3.3465, -0.9056 1.7478 3.3465, 0.4005 1.9273 3.3465, 0.1343 1.9639 3.3465, -0.1343 1.9639 3.3465, 1.1352 1.6082 3.3465, 0.9056 1.7478 3.3465, 0.6592 1.8548 3.3465, 1.6819 1.0228 3.3465, 1.527 1.2423 3.3465, 1.3436 1.4387 3.3465, 1.8955 0.5311 3.3465, 1.8055 0.7843 3.3465
            ]
        }
        coordIndex [
            0,1,2,-1,3,4,2,-1,2,4,5,-1,2,5,0,-1,6,7,2,-1,2,7,8,-1,2,8,3,-1,9,10,2,-1,2,10,11,-1,2,11,6,-1,12,13,2,-1,2,13,14,-1,2,14,9,-1,15,16,2,-1,2,16,17,-1,2,17,12,-1,18,19,2,-1,2,19,20,-1,2,20,15,-1,21,22,2,-1,2,22,23,-1,2,23,18,-1,24,25,2,-1,2,25,26,-1,2,26,21,-1,27,28,2,-1,2,28,29,-1,2,29,24,-1,30,31,2,-1,2,31,32,-1,2,32,27,-1,33,34,2,-1,2,34,35,-1,2,35,30,-1,36,37,2,-1,2,37,38,-1,2,38,33,-1,39,40,2,-1,2,40,41,-1,2,41,36,-1,42,43,2,-1,2,43,44,-1,2,44,39,-1,1,45,2,-1,2,45,46,-1,2,46,42,-1,
        ]
    }
}
Shape{
    appearance Appearance {
        material  Material 	{
            diffuseColor 0.7764705882352941 0.7568627450980392 0.7372549019607844
            specularColor 0.38823529411764707 0.3764705882352941 0.3686274509803922
            ambientIntensity 0.7605
            transparency 0.0
            shininess 0.5
        }
    }
    geometry IndexedFaceSet {
        ccw TRUE
        solid FALSE
        coord DEF co Coordinate {
            point [
                0.1834 -0.0331 0.1969, 0.1834 -0.0331 0.2047, 0.1721 -0.0 0.1969, 0.1721 -0.0 0.2047, 0.2322 -0.0331 0.1969, 0.2322 -0.0331 0.2047, 0.2441 -0.0 0.1969, 0.2441 -0.0 0.2047, 0.2614 -0.0 0.1969, 0.2614 -0.0 0.2047, 0.2153 -0.1181 0.1969, 0.2153 -0.1181 0.2047, 0.1995 -0.1181 0.1969, 0.1995 -0.1181 0.2047, 0.1548 -0.0 0.1969, 0.1548 -0.0 0.2047, 0.1873 -0.0461 0.2047, 0.205 -0.0954 0.2047, 0.2061 -0.0995 0.2047, 0.2069 -0.1037 0.2047, 0.208 -0.0996 0.2047, 0.2268 -0.0461 0.2047, 0.2091 -0.0954 0.2047, 0.1873 -0.0461 0.1969, 0.205 -0.0954 0.1969, 0.2268 -0.0461 0.1969, 0.2091 -0.0954 0.1969, 0.208 -0.0996 0.1969, 0.2069 -0.1037 0.1969, 0.2061 -0.0995 0.1969, 0.0511 -0.0 0.1969, 0.0511 0.0 0.2047, 0.0511 -0.1181 0.1969, 0.0511 -0.1181 0.2047, 0.0832 -0.0 0.1969, 0.0832 -0.0 0.2047, 0.1462 -0.0605 0.1969, 0.1462 -0.0605 0.2047, 0.1443 -0.0535 0.2047, 0.1443 -0.0535 0.1969, 0.1351 -0.0269 0.2047, 0.1351 -0.0269 0.1969, 0.1287 -0.0172 0.2047, 0.1287 -0.0172 0.1969, 0.1224 -0.0115 0.2047, 0.1224 -0.0115 0.1969, 0.1143 -0.0071 0.2047, 0.1143 -0.0071 0.1969, 0.1023 -0.0033 0.2047, 0.1023 -0.0033 0.1969, 0.0844 -0.1181 0.1969, 0.0844 -0.1181 0.2047, 0.0927 -0.1164 0.2047, 0.0927 -0.1164 0.1969, 0.1179 -0.109 0.2047, 0.1179 -0.109 0.1969, 0.1275 -0.1034 0.2047, 0.1275 -0.1034 0.1969, 0.1333 -0.0976 0.2047, 0.1333 -0.0976 0.1969, 0.138 -0.09 0.2047, 0.138 -0.09 0.1969, 0.1421 -0.0786 0.2047, 0.1421 -0.0786 0.1969, 0.1069 -0.1006 0.2047, 0.1129 -0.0976 0.2047, 0.1173 -0.0939 0.2047, 0.1216 -0.0879 0.2047, 0.1264 -0.0762 0.2047, 0.1303 -0.0602 0.2047, 0.1281 -0.046 0.2047, 0.1256 -0.037 0.2047, 0.1224 -0.0308 0.2047, 0.1186 -0.0263 0.2047, 0.1124 -0.0219 0.2047, 0.1003 -0.017 0.2047, 0.0982 -0.103 0.2047, 0.0844 -0.1051 0.2047, 0.0669 -0.1051 0.2047, 0.0669 -0.013 0.2047, 0.0837 -0.013 0.2047, 0.1303 -0.0602 0.1969, 0.1264 -0.0762 0.1969, 0.1216 -0.0879 0.1969, 0.1173 -0.0939 0.1969, 0.1129 -0.0976 0.1969, 0.1069 -0.1006 0.1969, 0.0982 -0.103 0.1969, 0.0844 -0.1051 0.1969, 0.0669 -0.1051 0.1969, 0.0669 -0.013 0.1969, 0.0837 -0.013 0.1969, 0.1003 -0.017 0.1969, 0.1124 -0.0219 0.1969, 0.1186 -0.0263 0.1969, 0.1224 -0.0308 0.1969, 0.1256 -0.037 0.1969, 0.1281 -0.046 0.1969, 0.0223 -0.0663 0.1969, 0.0223 -0.0663 0.2047, 0.0223 -0.0533 0.1969, 0.0223 -0.0533 0.2047, -0.0195 -0.0663 0.1969, -0.0195 -0.0663 0.2047, -0.0195 -0.1051 0.1969, -0.0195 -0.1051 0.2047, 0.0252 -0.1051 0.1969, 0.0252 -0.1051 0.2047, 0.0252 -0.1181 0.1969, 0.0252 -0.1181 0.2047, -0.0353 -0.1181 0.1969, -0.0353 -0.1181 0.2047, -0.0353 0.0 0.1969, -0.0353 0.0 0.2047, 0.0281 -0.0 0.1969, 0.0281 0.0 0.2047, 0.0281 -0.013 0.1969, 0.0281 -0.013 0.2047, -0.0195 -0.013 0.1969, -0.0195 -0.013 0.2047, -0.0195 -0.0533 0.1969, -0.0195 -0.0533 0.2047, -0.0584 -0.099 0.1969, -0.0584 -0.099 0.2047, -0.0717 -0.1047 0.2047, -0.0717 -0.1047 0.1969, -0.086 -0.1066 0.2047, -0.086 -0.1066 0.1969, -0.0584 -0.1149 0.1969, -0.0584 -0.1149 0.2047, -0.0862 -0.1196 0.1969, -0.0862 -0.1196 0.2047, -0.0755 -0.1188 0.1969, -0.072 -0.1186 0.2047, -0.072 -0.1186 0.1969, -0.1462 -0.0568 0.1969, -0.1462 -0.0568 0.2047, -0.1448 -0.0636 0.2047, -0.1448 -0.0636 0.1969, -0.1366 -0.0906 0.2047, -0.1366 -0.0906 0.1969, -0.1306 -0.1006 0.2047, -0.1306 -0.1006 0.1969, -0.1246 -0.1066 0.2047, -0.1246 -0.1066 0.1969, -0.1167 -0.1113 0.2047, -0.1167 -0.1113 0.1969, -0.1049 -0.1155 0.2047, -0.1049 -0.1155 0.1969, -0.0895 -0.1188 0.1969, -0.0909 0.0014 0.1969, -0.0909 0.0014 0.2047, -0.1001 -0.001 0.2047, -0.1001 -0.001 0.1969, -0.1225 -0.0091 0.2047, -0.1225 -0.0091 0.1969, -0.1311 -0.015 0.2047, -0.1311 -0.015 0.1969, -0.1362 -0.0207 0.2047, -0.1362 -0.0207 0.1969, -0.1401 -0.0283 0.2047, -0.1401 -0.0283 0.1969, -0.1434 -0.0393 0.2047, -0.1434 -0.0393 0.1969, -0.0584 -0.0061 0.1969, -0.0584 -0.0061 0.2047, -0.0742 -0.0002 0.2047, -0.0742 -0.0002 0.1969, -0.0584 -0.0191 0.1969, -0.0584 -0.0191 0.2047, -0.0887 -0.0115 0.1969, -0.0887 -0.0115 0.2047, -0.073 -0.0133 0.2047, -0.073 -0.0133 0.1969, -0.1304 -0.0578 0.1969, -0.1304 -0.0578 0.2047, -0.1276 -0.0435 0.2047, -0.1276 -0.0435 0.1969, -0.1234 -0.0311 0.2047, -0.1234 -0.0311 0.1969, -0.1195 -0.0247 0.2047, -0.1195 -0.0247 0.1969, -0.1158 -0.0211 0.2047, -0.1158 -0.0211 0.1969, -0.1102 -0.0177 0.2047, -0.1102 -0.0177 0.1969, -0.1019 -0.0146 0.2047, -0.1019 -0.0146 0.1969, -0.0919 -0.1049 0.2047, -0.0919 -0.1049 0.1969, -0.1113 -0.0975 0.2047, -0.1113 -0.0975 0.1969, -0.1184 -0.0925 0.2047, -0.1184 -0.0925 0.1969, -0.1226 -0.0877 0.2047, -0.1226 -0.0877 0.1969, -0.1257 -0.0814 0.2047, -0.1257 -0.0814 0.1969, -0.1283 -0.0723 0.2047, -0.1283 -0.0723 0.1969, -0.2168 0.0 0.1969, -0.2168 0.0 0.2047, -0.2168 -0.1181 0.1969, -0.2168 -0.1181 0.2047, -0.1563 0.0 0.1969, -0.1563 0.0 0.2047, -0.1563 -0.013 0.1969, -0.1563 -0.013 0.2047, -0.201 -0.013 0.1969, -0.201 -0.013 0.2047, -0.201 -0.1181 0.1969, -0.201 -0.1181 0.2047
            ]
        }
        coordIndex [
            0,1,2,-1,2,1,3,-1,4,5,0,-1,0,5,1,-1,6,7,4,-1,4,7,5,-1,8,9,6,-1,6,9,7,-1,10,11,8,-1,8,11,9,-1,12,13,10,-1,10,13,11,-1,14,15,12,-1,12,15,13,-1,14,2,15,-1,15,2,3,-1,16,17,13,-1,17,18,13,-1,13,18,19,-1,13,19,11,-1,11,19,20,-1,15,3,1,-1,13,15,16,-1,16,15,1,-1,16,1,21,-1,21,1,5,-1,20,22,11,-1,11,22,21,-1,11,21,9,-1,9,21,5,-1,9,5,7,-1,16,23,17,-1,17,23,24,-1,21,25,16,-1,16,25,23,-1,22,26,21,-1,21,26,25,-1,26,22,20,-1,26,20,27,-1,27,20,19,-1,27,19,28,-1,28,19,18,-1,28,18,29,-1,29,18,17,-1,29,17,24,-1,30,31,32,-1,32,31,33,-1,34,35,30,-1,30,35,31,-1,36,37,38,-1,36,38,39,-1,39,38,40,-1,39,40,41,-1,41,40,42,-1,41,42,43,-1,43,42,44,-1,43,44,45,-1,45,44,46,-1,45,46,47,-1,47,46,48,-1,47,48,49,-1,49,48,35,-1,49,35,34,-1,50,51,52,-1,50,52,53,-1,53,52,54,-1,53,54,55,-1,55,54,56,-1,55,56,57,-1,57,56,58,-1,57,58,59,-1,59,58,60,-1,59,60,61,-1,61,60,62,-1,61,62,63,-1,63,62,37,-1,63,37,36,-1,50,32,51,-1,51,32,33,-1,64,65,54,-1,54,65,56,-1,56,65,66,-1,56,66,58,-1,58,66,67,-1,58,67,60,-1,60,67,68,-1,60,68,62,-1,62,68,37,-1,37,68,69,-1,37,69,38,-1,38,69,70,-1,38,70,40,-1,70,71,40,-1,40,71,72,-1,40,72,42,-1,42,72,73,-1,42,73,44,-1,44,73,74,-1,44,74,46,-1,46,74,75,-1,64,54,76,-1,76,54,52,-1,76,52,77,-1,77,52,51,-1,77,51,78,-1,78,51,33,-1,78,33,79,-1,79,33,31,-1,79,31,80,-1,80,31,35,-1,80,35,75,-1,75,35,48,-1,75,48,46,-1,81,69,68,-1,81,68,82,-1,82,68,67,-1,82,67,83,-1,83,67,66,-1,83,66,84,-1,84,66,65,-1,84,65,85,-1,85,65,64,-1,85,64,86,-1,86,64,76,-1,86,76,87,-1,87,76,77,-1,87,77,88,-1,78,89,77,-1,77,89,88,-1,79,90,78,-1,78,90,89,-1,80,91,79,-1,79,91,90,-1,91,80,75,-1,91,75,92,-1,92,75,74,-1,92,74,93,-1,93,74,73,-1,93,73,94,-1,94,73,72,-1,94,72,95,-1,95,72,71,-1,95,71,96,-1,96,71,70,-1,96,70,97,-1,97,70,69,-1,97,69,81,-1,98,99,100,-1,100,99,101,-1,102,103,98,-1,98,103,99,-1,104,105,102,-1,102,105,103,-1,106,107,104,-1,104,107,105,-1,108,109,106,-1,106,109,107,-1,110,111,108,-1,108,111,109,-1,112,113,110,-1,110,113,111,-1,114,115,112,-1,112,115,113,-1,116,117,114,-1,114,117,115,-1,118,119,116,-1,116,119,117,-1,120,121,118,-1,118,121,119,-1,120,100,121,-1,121,100,101,-1,113,115,117,-1,117,119,113,-1,113,119,121,-1,113,121,111,-1,107,109,105,-1,105,109,111,-1,105,111,103,-1,103,111,121,-1,103,121,99,-1,99,121,101,-1,122,123,124,-1,122,124,125,-1,125,124,126,-1,125,126,127,-1,128,129,122,-1,122,129,123,-1,130,131,132,-1,132,131,133,-1,132,133,134,-1,134,133,129,-1,134,129,128,-1,135,136,137,-1,135,137,138,-1,138,137,139,-1,138,139,140,-1,140,139,141,-1,140,141,142,-1,142,141,143,-1,142,143,144,-1,144,143,145,-1,144,145,146,-1,146,145,147,-1,146,147,148,-1,148,147,149,-1,149,147,131,-1,149,131,130,-1,150,151,152,-1,150,152,153,-1,153,152,154,-1,153,154,155,-1,155,154,156,-1,155,156,157,-1,157,156,158,-1,157,158,159,-1,159,158,160,-1,159,160,161,-1,161,160,162,-1,161,162,163,-1,163,162,136,-1,163,136,135,-1,164,165,166,-1,164,166,167,-1,167,166,151,-1,167,151,150,-1,168,169,164,-1,164,169,165,-1,170,171,172,-1,170,172,173,-1,173,172,169,-1,173,169,168,-1,174,175,176,-1,174,176,177,-1,177,176,178,-1,177,178,179,-1,179,178,180,-1,179,180,181,-1,181,180,182,-1,181,182,183,-1,183,182,184,-1,183,184,185,-1,185,184,186,-1,185,186,187,-1,187,186,171,-1,187,171,170,-1,127,126,188,-1,127,188,189,-1,189,188,190,-1,189,190,191,-1,191,190,192,-1,191,192,193,-1,193,192,194,-1,193,194,195,-1,195,194,196,-1,195,196,197,-1,197,196,198,-1,197,198,199,-1,199,198,175,-1,199,175,174,-1,123,129,124,-1,124,129,133,-1,124,133,126,-1,126,133,131,-1,126,131,188,-1,188,131,147,-1,188,147,190,-1,176,160,178,-1,178,160,158,-1,178,158,180,-1,180,158,156,-1,180,156,182,-1,182,156,154,-1,147,145,190,-1,190,145,143,-1,190,143,192,-1,192,143,141,-1,192,141,194,-1,194,141,139,-1,194,139,196,-1,165,169,166,-1,166,169,172,-1,166,172,151,-1,151,172,171,-1,151,171,152,-1,152,171,186,-1,152,186,154,-1,154,186,184,-1,154,184,182,-1,196,139,198,-1,198,139,137,-1,198,137,175,-1,175,137,136,-1,175,136,176,-1,176,136,162,-1,176,162,160,-1,200,201,202,-1,202,201,203,-1,204,205,200,-1,200,205,201,-1,206,207,204,-1,204,207,205,-1,208,209,206,-1,206,209,207,-1,210,211,208,-1,208,211,209,-1,210,202,211,-1,211,202,203,-1,211,203,209,-1,209,203,201,-1,209,201,207,-1,207,201,205,-1,
        ]
    }
}
Shape{
    appearance Appearance {
        material  Material 	{
            diffuseColor 0.10980392156862745 0.10980392156862745 0.10980392156862745
            specularColor 0.0784313725490196 0.0784313725490196 0.0784313725490196
            ambientIntensity 0.1098
            transparency 0.0
            shininess 0.5
        }
    }
    geometry IndexedFaceSet {
        ccw TRUE
        solid FALSE
        coord DEF co Coordinate {
            point [
                0.1873 -0.0461 0.1969, 0.2268 -0.0461 0.1969, 0.205 -0.0954 0.1969, 0.2091 -0.0954 0.1969, 0.2061 -0.0995 0.1969, 0.208 -0.0996 0.1969, 0.2069 -0.1037 0.1969, 0.0844 -0.1051 0.1969, 0.0669 -0.1051 0.1969, 0.1281 -0.046 0.1969, 0.1256 -0.037 0.1969, 0.1069 -0.1006 0.1969, 0.0982 -0.103 0.1969, 0.1264 -0.0762 0.1969, 0.1303 -0.0602 0.1969, 0.0669 -0.013 0.1969, 0.0837 -0.013 0.1969, 0.1003 -0.017 0.1969, 0.1124 -0.0219 0.1969, 0.1186 -0.0263 0.1969, 0.1224 -0.0308 0.1969, 0.1129 -0.0976 0.1969, 0.1216 -0.0879 0.1969, 0.1173 -0.0939 0.1969, -1.437 1.437 0.0787, -1.437 -1.437 0.0787, -2.4606 -1.0827 0.0787, 1.437 -1.437 0.0787, 1.0827 -2.4606 0.0787, -1.0827 -2.4606 0.0787, 1.437 1.437 0.0787, 2.4606 1.0827 0.0787, 2.4606 -1.0827 0.0787, -2.4606 1.0827 0.0787, -1.0827 2.4606 0.0787, 1.0827 2.4606 0.0787, 1.437 -1.437 0.1929, -1.437 -1.437 0.1929, -1.0827 -2.4606 0.1929, -1.437 1.437 0.1929, -2.4606 1.0827 0.1929, -2.4606 -1.0827 0.1929, 1.437 1.437 0.1929, 1.0827 2.4606 0.1929, -1.0827 2.4606 0.1929, 1.0827 -2.4606 0.1929, 2.4606 -1.0827 0.1929, 2.4606 1.0827 0.1929
            ]
        }
        coordIndex [
            0,1,2,-1,2,1,3,-1,2,3,4,-1,4,3,5,-1,4,5,6,-1,7,8,9,-1,9,8,10,-1,11,12,13,-1,7,9,12,-1,12,9,14,-1,12,14,13,-1,15,16,8,-1,8,16,17,-1,8,17,18,-1,18,19,8,-1,8,19,20,-1,8,20,10,-1,11,13,21,-1,21,13,22,-1,21,22,23,-1,24,25,26,-1,27,28,25,-1,25,28,29,-1,25,29,26,-1,30,31,27,-1,27,31,32,-1,27,32,28,-1,26,33,24,-1,24,33,34,-1,24,34,30,-1,30,34,35,-1,30,35,31,-1,36,37,38,-1,39,40,37,-1,37,40,41,-1,37,41,38,-1,42,43,39,-1,39,43,44,-1,39,44,40,-1,38,45,36,-1,36,45,46,-1,36,46,42,-1,42,46,47,-1,42,47,43,-1,33,26,40,-1,40,26,41,-1,34,33,44,-1,44,33,40,-1,35,34,43,-1,43,34,44,-1,31,35,47,-1,47,35,43,-1,32,31,46,-1,46,31,47,-1,28,32,45,-1,45,32,46,-1,29,28,38,-1,38,28,45,-1,26,29,41,-1,41,29,38,-1,30,27,42,-1,42,27,36,-1,27,25,36,-1,36,25,37,-1,25,24,37,-1,37,24,39,-1,24,30,39,-1,39,30,42,-1,
        ]
    }
}
Shape{
    appearance Appearance {
        material  Material 	{
            diffuseColor 0.7764705882352941 0.7568627450980392 0.7372549019607844
            specularColor 0.38823529411764707 0.3764705882352941 0.3686274509803922
            ambientIntensity 0.7605
            transparency 0.0
            shininess 0.5
        }
    }
    geometry IndexedFaceSet {
        ccw TRUE
        solid FALSE
        coord DEF co Coordinate {
            point [
                -0.9843 -1.3583 0.1969, -0.9843 -1.437 0.1969, 0.9843 -1.3583 0.1969, 0.9843 -1.437 0.1969, -0.9843 -2.4606 0.0787, -0.9843 -2.4606 0.0, 0.9843 -2.4606 0.0787, 0.9843 -2.4606 0.0, -0.9843 -1.437 0.0787, -0.9843 -1.3583 0.0787, 0.9843 -1.3583 0.0787, 0.9843 -1.437 0.0787, -0.9843 -1.4166 0.0027, -0.9843 -1.437 0.0, -0.9843 -1.361 0.0584, -0.9843 -1.3688 0.0394, -0.9843 -1.3813 0.0231, -0.9843 -1.3976 0.0105, 0.9843 -1.437 0.0, 0.9843 -1.4166 0.0027, 0.9843 -1.3976 0.0105, 0.9843 -1.3813 0.0231, 0.9843 -1.3688 0.0394, 0.9843 -1.361 0.0584, -0.9843 1.437 0.1969, -0.9843 1.3583 0.1969, 0.9843 1.437 0.1969, 0.9843 1.3583 0.1969, -0.9843 2.4606 0.0, -0.9843 2.4606 0.0787, 0.9843 2.4606 0.0, 0.9843 2.4606 0.0787, -0.9843 1.437 0.0787, -0.9843 1.3583 0.0787, 0.9843 1.3583 0.0787, 0.9843 1.437 0.0787, -0.9843 1.361 0.0584, -0.9843 1.437 0.0, -0.9843 1.4166 0.0027, -0.9843 1.3976 0.0105, -0.9843 1.3813 0.0231, -0.9843 1.3688 0.0394, 0.9843 1.361 0.0584, 0.9843 1.3688 0.0394, 0.9843 1.3813 0.0231, 0.9843 1.3976 0.0105, 0.9843 1.4166 0.0027, 0.9843 1.437 0.0
            ]
        }
        coordIndex [
            0,1,2,-1,2,1,3,-1,4,5,6,-1,6,5,7,-1,8,1,9,-1,9,1,0,-1,9,0,10,-1,10,0,2,-1,10,2,11,-1,11,2,3,-1,3,1,11,-1,11,1,8,-1,12,13,8,-1,9,14,8,-1,8,14,15,-1,15,16,8,-1,8,16,17,-1,8,17,12,-1,18,13,12,-1,18,12,19,-1,19,12,17,-1,19,17,20,-1,20,17,16,-1,20,16,21,-1,21,16,15,-1,21,15,22,-1,22,15,14,-1,22,14,23,-1,23,14,9,-1,23,9,10,-1,23,10,11,-1,18,19,11,-1,11,19,20,-1,20,21,11,-1,11,21,22,-1,11,22,23,-1,4,8,5,-1,5,8,13,-1,5,13,7,-1,7,13,18,-1,7,18,6,-1,6,18,11,-1,11,8,6,-1,6,8,4,-1,24,25,26,-1,26,25,27,-1,28,29,30,-1,30,29,31,-1,24,32,25,-1,25,32,33,-1,25,33,27,-1,27,33,34,-1,27,34,26,-1,26,34,35,-1,24,26,32,-1,32,26,35,-1,36,33,32,-1,37,38,32,-1,32,38,39,-1,39,40,32,-1,32,40,41,-1,32,41,36,-1,34,33,36,-1,34,36,42,-1,42,36,41,-1,42,41,43,-1,43,41,40,-1,43,40,44,-1,44,40,39,-1,44,39,45,-1,45,39,38,-1,45,38,46,-1,46,38,37,-1,46,37,47,-1,34,42,35,-1,35,42,43,-1,35,43,44,-1,44,45,35,-1,35,45,46,-1,35,46,47,-1,32,29,37,-1,37,29,28,-1,37,28,47,-1,47,28,30,-1,47,30,35,-1,35,30,31,-1,32,35,29,-1,29,35,31,-1,
        ]
    }
}